<?xml version="1.0" standalone="no"?>
<!DOCTYPE svg PUBLIC "-//W3C//DTD SVG 20010904//EN"
 "http://www.w3.org/TR/2001/REC-SVG-20010904/DTD/svg10.dtd">
<svg version="1.0" xmlns="http://www.w3.org/2000/svg"
 width="100.000000pt" height="100.000000pt" viewBox="0 0 100.000000 100.000000"
 preserveAspectRatio="xMidYMid meet">

<g transform="translate(0.000000,100.000000) scale(0.100000,-0.100000)"
fill="#000000" stroke="none">
<path d="M16 982 c-15 -17 -16 -56 -14 -408 l3 -389 245 0 c211 0 245 2 245
15 0 13 -33 15 -227 18 l-228 2 0 300 0 300 400 0 399 0 3 -137 c3 -115 6
-138 18 -138 13 0 15 31 18 209 2 184 0 211 -14 227 -16 18 -41 19 -424 19
-383 0 -408 -1 -424 -18z m822 -74 l3 -48 -400 0 -401 0 0 43 c0 24 3 47 7 50
4 4 182 6 397 5 l391 -3 3 -47z"/>
<path d="M140 680 c0 -17 7 -20 40 -20 33 0 40 3 40 20 0 17 -7 20 -40 20 -33
0 -40 -3 -40 -20z"/>
<path d="M280 680 c0 -19 7 -20 230 -20 223 0 230 1 230 20 0 19 -7 20 -230
20 -223 0 -230 -1 -230 -20z"/>
<path d="M140 580 c0 -17 7 -20 40 -20 33 0 40 3 40 20 0 17 -7 20 -40 20 -33
0 -40 -3 -40 -20z"/>
<path d="M280 580 c0 -19 7 -20 230 -20 223 0 230 1 230 20 0 19 -7 20 -230
20 -223 0 -230 -1 -230 -20z"/>
<path d="M140 480 c0 -17 7 -20 40 -20 33 0 40 3 40 20 0 17 -7 20 -40 20 -33
0 -40 -3 -40 -20z"/>
<path d="M280 480 c0 -19 7 -20 230 -20 223 0 230 1 230 20 0 19 -7 20 -230
20 -223 0 -230 -1 -230 -20z"/>
<path d="M709 324 c-174 -174 -177 -177 -194 -241 -12 -42 -14 -68 -8 -74 7
-7 33 -4 77 7 66 18 67 19 241 194 154 155 175 180 175 209 0 21 -9 41 -25 56
-15 16 -35 25 -56 25 -29 0 -54 -21 -210 -176z m213 61 c4 -6 -60 -78 -144
-162 l-152 -153 -28 27 -29 27 153 153 c148 149 153 152 173 135 11 -9 23 -21
27 -27z"/>
<path d="M140 380 c0 -17 7 -20 40 -20 33 0 40 3 40 20 0 17 -7 20 -40 20 -33
0 -40 -3 -40 -20z"/>
<path d="M280 380 c0 -19 7 -20 190 -20 183 0 190 1 190 20 0 19 -7 20 -190
20 -183 0 -190 -1 -190 -20z"/>
</g>
</svg>
