<?xml version="1.0" standalone="no"?>
<!DOCTYPE svg PUBLIC "-//W3C//DTD SVG 20010904//EN"
 "http://www.w3.org/TR/2001/REC-SVG-20010904/DTD/svg10.dtd">
<svg version="1.0" xmlns="http://www.w3.org/2000/svg"
 width="369.000000pt" height="367.000000pt" viewBox="0 0 369.000000 367.000000"
 preserveAspectRatio="xMidYMid meet">

<g transform="translate(0.000000,367.000000) scale(0.100000,-0.100000)"
fill="#000000" stroke="none">
<path d="M1725 3580 c-316 -28 -586 -124 -846 -299 -197 -132 -352 -288 -484
-486 -350 -522 -398 -1183 -128 -1755 83 -175 198 -336 347 -485 161 -160 276
-244 471 -340 172 -84 258 -115 435 -153 114 -24 144 -26 350 -26 206 0 236 2
350 26 178 38 264 69 435 153 197 98 311 181 470 340 182 181 295 351 390 582
222 545 158 1170 -170 1658 -243 361 -605 622 -1015 729 -191 51 -425 72 -605
56z m153 -122 l-3 -93 -36 -9 -36 -9 29 -43 c16 -24 33 -46 39 -49 10 -7 12
-71 2 -167 l-6 -68 -82 0 c-165 0 -295 12 -295 27 0 20 60 147 109 232 49 84
156 202 220 243 25 15 49 28 53 28 5 0 7 -42 6 -92z m118 62 c74 -42 201 -187
181 -206 -3 -3 -21 1 -39 10 -44 23 -110 31 -135 17 -16 -8 -24 -7 -33 4 -6 7
-24 15 -38 17 -27 3 -27 3 -30 96 -3 90 -2 92 20 92 13 0 46 -13 74 -30z
m-327 16 c-2 -2 -42 -19 -89 -38 -174 -70 -339 -185 -473 -329 l-85 -91 -68
18 c-73 18 -150 50 -160 66 -9 14 17 36 116 103 169 113 415 215 614 255 85
17 155 25 145 16z m53 -63 c-87 -86 -140 -165 -213 -317 l-58 -122 -98 8 c-54
4 -142 12 -195 19 -116 13 -116 10 -2 125 100 99 209 179 331 242 90 46 259
111 290 112 7 0 -18 -30 -55 -67z m487 48 c211 -41 439 -136 621 -259 149
-101 157 -107 142 -125 -32 -38 -221 -92 -244 -69 -9 9 -8 12 4 12 33 0 26 27
-10 40 -21 7 -77 50 -125 96 -134 126 -258 206 -477 307 -47 21 -30 21 89 -2z
m0 -67 c52 -24 131 -69 177 -99 101 -68 245 -201 242 -224 -2 -10 5 -17 19
-19 22 -3 62 -52 43 -52 -5 0 -10 3 -10 8 0 4 -22 5 -48 4 -35 -3 -52 1 -61
12 -22 26 -39 19 -43 -16 -4 -46 -29 -47 -94 -4 -36 24 -65 36 -89 36 -19 0
-35 5 -35 10 0 6 5 10 10 10 17 0 11 19 -11 38 -11 9 -37 49 -56 87 -47 92
-100 170 -154 224 -44 44 -44 44 -14 37 17 -4 72 -27 124 -52z m29 -231 c17
-37 29 -70 26 -75 -3 -4 -27 -8 -55 -8 -27 0 -49 -4 -49 -10 0 -6 26 -10 59
-10 33 0 63 -4 66 -10 4 -6 -17 -10 -55 -10 -57 0 -63 -2 -104 -40 l-43 -40
-92 0 -91 0 0 108 0 108 38 -4 c20 -3 46 -11 57 -18 11 -8 29 -14 41 -14 13 0
36 -12 53 -26 38 -32 65 -28 69 10 3 20 -3 32 -17 43 -26 17 -27 50 -3 56 58
15 68 10 100 -60z m-1356 -131 c35 -11 78 -24 95 -27 28 -6 31 -9 22 -23 -5
-9 -36 -59 -67 -110 -31 -52 -60 -94 -64 -93 -5 1 -19 1 -32 1 -18 0 -34 15
-67 66 -30 46 -58 76 -93 97 l-50 31 69 63 68 62 28 -24 c16 -13 57 -32 91
-43z m2176 -5 c14 -14 19 -27 14 -31 -6 -3 -49 -3 -96 0 l-86 7 37 17 c21 10
47 25 58 33 22 17 38 12 73 -26z m-1926 -47 c40 -5 124 -14 186 -19 63 -5 116
-12 119 -15 3 -3 -9 -54 -26 -114 -17 -60 -42 -158 -55 -218 -13 -66 -27 -109
-34 -108 -7 1 -30 2 -52 3 -33 1 -41 5 -46 26 -6 26 -36 49 -48 38 -3 -3 -6
-17 -6 -30 0 -25 -7 -28 -29 -14 -10 7 -12 22 -8 58 6 55 -6 89 -23 63 -5 -8
-7 -25 -4 -37 4 -16 1 -25 -10 -29 -9 -3 -16 -12 -16 -19 0 -28 -32 -39 -98
-36 -83 3 -102 13 -102 51 0 36 -27 42 -32 8 -2 -13 -11 -24 -20 -26 -16 -3
-16 0 -1 43 15 45 16 47 49 41 27 -6 35 -3 44 15 14 25 5 86 -13 92 -9 3 -7
14 6 43 30 63 120 194 133 194 7 0 46 -4 86 -10z m1606 -33 c3 -13 -4 -17 -26
-17 -36 0 -51 27 -19 33 32 6 42 2 45 -16z m-991 -7 l123 0 0 -227 0 -226
-252 6 c-138 4 -254 9 -256 12 -6 6 53 262 84 364 l26 84 75 -7 c42 -3 132 -6
200 -6z m838 0 c-3 -5 -12 -10 -20 -10 -8 0 -17 5 -20 10 -4 6 5 10 20 10 15
0 24 -4 20 -10z m-548 -10 c43 0 44 -1 39 -28 -6 -23 1 -35 53 -86 l59 -58 51
38 c56 42 62 54 28 54 -29 0 -82 53 -74 74 5 12 20 16 55 16 42 0 51 -4 70
-29 11 -16 30 -63 41 -106 17 -69 18 -75 3 -62 -37 33 -132 18 -104 -16 14
-16 7 -43 -13 -51 -7 -2 -19 2 -25 10 -28 32 -52 10 -65 -58 -4 -21 -13 -42
-21 -49 -23 -19 -16 -38 24 -58 29 -15 33 -21 20 -26 -9 -4 -26 -2 -37 4 -13
7 -22 8 -26 1 -3 -6 -52 -10 -111 -10 l-104 0 0 226 0 227 46 -7 c26 -3 67 -6
91 -6z m371 -56 c30 -21 28 -34 -7 -34 -23 0 -30 5 -33 25 -6 29 7 32 40 9z
m59 -69 c19 -8 47 -15 60 -15 14 0 47 -16 74 -36 44 -32 48 -38 42 -67 -6 -33
-37 -66 -87 -90 -27 -14 -28 -15 -7 -22 25 -8 27 -27 5 -46 -20 -16 -46 -1
-54 31 -3 13 -19 31 -35 40 -18 10 -32 28 -37 46 -4 16 -15 55 -24 87 -17 56
-17 58 2 72 24 18 18 18 61 0z m-1766 -26 c39 -31 39 -31 33 -85 -6 -51 -5
-56 15 -61 18 -4 21 -11 17 -29 -5 -18 -2 -24 10 -24 20 0 13 -24 -9 -28 -8
-2 -34 2 -56 8 -30 8 -41 16 -41 30 0 13 -9 22 -26 26 -25 6 -50 47 -38 65 3
5 15 9 27 9 15 0 29 11 41 31 18 30 18 31 -3 45 -19 14 -30 44 -15 44 3 0 24
-14 45 -31z m2615 -61 c5 -16 0 -27 -17 -41 l-24 -19 -3 32 c-5 47 31 69 44
28z m72 -110 c56 -99 93 -184 135 -308 55 -164 55 -165 10 -182 -21 -9 -53
-19 -71 -23 -32 -7 -33 -6 -23 13 6 12 11 54 11 95 l0 75 -56 72 c-30 39 -59
83 -64 96 -7 17 -14 22 -26 17 -15 -5 -16 -1 -11 32 4 21 3 44 -2 49 -5 6 -11
27 -14 46 -5 30 -1 39 26 62 18 15 35 28 38 28 3 0 24 -33 47 -72z m-2578 18
c0 -3 -4 -8 -10 -11 -5 -3 -10 -1 -10 4 0 6 5 11 10 11 6 0 10 -2 10 -4z m368
-137 c81 -6 148 -11 148 -12 1 -1 -6 -66 -16 -145 -10 -78 -22 -194 -26 -257
-6 -111 -8 -115 -30 -115 -17 0 -25 9 -34 38 -7 20 -26 52 -44 70 -29 31 -34
33 -76 27 -37 -5 -58 -1 -118 25 -60 25 -81 30 -116 25 -42 -7 -44 -9 -49 -47
-7 -49 -12 -55 -57 -62 -56 -10 -60 -2 -48 90 l10 82 47 22 c25 13 60 39 76
58 31 35 31 35 62 18 18 -9 45 -16 61 -16 27 0 32 -5 52 -61 32 -84 48 -97
118 -95 l57 2 -3 79 c-2 44 -5 82 -8 84 -3 3 -29 5 -59 5 -54 0 -55 1 -55 28
0 16 8 40 17 54 14 22 14 27 2 35 -8 5 -25 9 -40 9 -15 0 -38 13 -59 35 l-34
35 38 0 c20 0 103 -5 184 -11z m580 -25 l112 -6 0 -264 c0 -241 -2 -265 -17
-271 -16 -6 -347 10 -492 24 l-63 6 6 101 c8 113 44 404 51 416 5 8 177 5 403
-6z m601 3 c14 -17 4 -27 -26 -27 -25 0 -29 -10 -12 -27 20 -20 -1 -35 -40
-28 l-36 7 30 -26 c17 -14 38 -26 47 -26 9 0 25 -3 35 -6 16 -5 16 -4 -1 10
-14 12 -17 19 -9 27 8 8 22 3 51 -16 34 -23 42 -34 47 -69 10 -72 25 -349 20
-355 -10 -9 -427 -22 -502 -16 l-73 7 0 267 0 268 61 7 c34 3 89 6 123 6 53
-1 59 -2 44 -14 -23 -17 -25 -76 -3 -76 8 0 20 9 27 20 7 11 23 20 36 20 19 0
21 4 16 24 -6 24 -3 25 48 29 29 2 65 4 79 5 15 1 32 -4 38 -11z m-1951 -117
c7 0 21 5 31 12 34 21 53 0 93 -99 7 -17 23 -36 35 -42 18 -8 23 -19 23 -51 0
-29 4 -40 15 -40 9 0 15 9 15 25 0 15 9 31 24 41 14 8 28 28 31 44 3 16 13 35
22 42 14 11 15 9 10 -22 -4 -19 -9 -56 -12 -81 -12 -97 -21 -134 -35 -131 -7
2 -65 12 -129 23 -149 25 -175 32 -178 50 -6 29 11 40 44 27 26 -10 39 -8 87
11 31 13 56 29 56 35 0 17 -37 46 -58 46 -9 0 -35 12 -56 26 -35 24 -43 26
-71 15 -17 -6 -48 -11 -69 -11 -33 0 -37 3 -34 23 2 15 11 23 29 25 15 2 39
16 54 32 26 27 30 28 45 15 9 -8 22 -15 28 -15z m372 -54 c0 -7 -12 -22 -27
-31 -24 -16 -26 -16 -20 0 4 9 7 23 7 31 0 8 9 14 20 14 11 0 20 -6 20 -14z
m1765 -83 c17 -19 40 -35 53 -36 14 -1 25 -9 28 -24 3 -12 37 -51 75 -86 103
-96 96 -110 -56 -126 -170 -17 -151 -29 -159 102 -4 61 -9 136 -13 166 -5 52
-5 53 18 46 13 -4 38 -23 54 -42z m1035 -117 c0 -2 5 -28 10 -57 17 -88 29
-278 23 -371 l-6 -86 -56 -25 c-94 -42 -281 -93 -444 -122 l-38 -6 6 73 c10
117 5 109 105 147 103 38 134 68 124 119 -4 21 1 45 20 82 14 28 26 67 26 86
0 55 38 129 56 111 6 -6 -13 -116 -32 -179 -17 -58 -17 -58 0 -58 8 0 16 16
20 38 3 22 15 51 27 66 16 20 19 30 10 35 -8 5 -9 23 -4 60 l8 54 55 17 c53
17 90 24 90 16z m-3111 -38 l105 -22 -43 -13 c-24 -7 -52 -19 -61 -28 -9 -8
-19 -15 -23 -15 -18 0 -97 66 -97 82 0 22 -8 22 119 -4z m194 -45 c-7 -2 -19
-2 -25 0 -7 3 -2 5 12 5 14 0 19 -2 13 -5z m64 -9 c-3 -3 -12 -4 -19 -1 -8 3
-5 6 6 6 11 1 17 -2 13 -5z m2192 -13 c19 -12 5 -18 -64 -25 -48 -5 -55 -4
-35 5 14 6 32 15 40 19 20 11 42 12 59 1z m141 -51 c16 -29 9 -242 -8 -248 -8
-2 -19 12 -29 37 -9 23 -21 41 -27 41 -6 0 -21 3 -33 6 -28 8 -30 -9 -7 -54
21 -44 15 -64 -25 -74 -27 -8 -32 -13 -27 -31 7 -29 -13 -109 -32 -124 -8 -7
-25 -10 -38 -7 -12 3 -25 1 -28 -5 -13 -20 -31 -11 -59 29 -25 36 -33 40 -71
40 -23 0 -51 -7 -62 -15 -11 -8 -41 -14 -72 -15 l-52 0 2 193 3 192 80 7 c44
4 101 9 128 13 44 5 47 4 47 -18 0 -13 6 -32 14 -43 16 -21 14 -22 34 41 8 28
14 31 78 41 117 19 172 17 184 -6z m-2709 -43 c-11 -19 -21 -43 -21 -54 0 -11
-11 -30 -25 -43 -14 -13 -25 -32 -25 -42 0 -15 -91 -128 -111 -136 -4 -2 -10
11 -14 29 -6 27 -2 36 34 73 23 23 39 45 35 49 -3 3 4 20 15 36 26 36 124 131
130 126 2 -2 -6 -19 -18 -38z m1134 18 c99 -8 221 -15 271 -15 62 0 94 -4 100
-12 5 -7 8 -127 6 -266 l-3 -253 -192 7 c-106 3 -230 9 -277 13 -84 6 -85 6
-88 34 -2 19 9 49 32 88 35 59 36 63 36 166 0 101 -1 107 -35 167 -30 54 -42
86 -32 86 1 0 83 -7 182 -15z m1646 -49 c34 -74 18 -166 -28 -166 -10 0 -13
25 -13 111 0 119 7 129 41 55z m-661 -144 c0 -165 -2 -181 -20 -202 -11 -13
-20 -29 -20 -36 0 -19 -71 -71 -110 -79 -19 -4 -45 -13 -57 -21 -17 -11 -64
-14 -198 -14 l-175 0 0 260 0 260 188 3 c103 1 233 3 290 5 l102 2 0 -178z
m-2320 -134 c0 -5 -4 -8 -10 -8 -5 0 -10 10 -10 23 0 18 2 19 10 7 5 -8 10
-18 10 -22z m2904 -67 c-3 -39 -12 -77 -18 -85 -11 -15 -250 -46 -262 -34 -3
4 -3 16 1 28 6 18 12 21 39 16 48 -9 103 17 122 57 14 29 112 103 122 92 2 -2
0 -35 -4 -74z m546 5 c0 -81 -53 -279 -122 -453 -46 -116 -29 -104 -203 -147
-95 -24 -336 -68 -341 -63 -2 1 15 61 37 132 22 72 53 193 68 269 l28 140 140
27 c140 28 306 77 353 104 35 20 40 19 40 -9z m-2605 -106 c3 -5 -1 -10 -9
-10 -9 0 -16 5 -16 10 0 6 4 10 9 10 6 0 13 -4 16 -10z m285 -4 c0 -18 -17
-29 -30 -21 -8 5 -7 11 1 21 15 18 29 18 29 0z m1755 -38 c-2 -13 -9 -52 -15
-88 -31 -181 -105 -418 -134 -431 -18 -7 -199 -29 -242 -29 -9 0 1 19 28 53
24 28 69 89 102 135 56 80 58 84 45 114 -11 27 -10 32 4 43 9 7 17 16 17 20 0
4 -20 40 -45 79 -47 76 -54 95 -32 97 6 0 59 7 117 14 161 19 161 19 155 -7z
m-1900 1 c77 -5 140 -11 142 -12 1 -1 7 -58 13 -127 10 -114 31 -276 46 -358
l6 -33 -63 6 c-190 20 -443 55 -450 62 -11 11 -59 171 -59 199 0 11 14 42 32
70 26 40 33 62 36 116 l4 68 37 6 c20 3 41 7 46 9 19 6 70 5 210 -6z m498 -25
l227 -7 0 -264 0 -263 -72 0 c-106 0 -380 20 -403 29 -17 7 -24 26 -38 117
-22 138 -47 386 -40 398 3 4 26 6 52 2 25 -3 148 -8 274 -12z m596 -16 c-1
-28 -25 -73 -39 -76 -8 -2 -16 -8 -18 -13 -2 -5 -12 -9 -23 -9 -11 0 -74 -20
-141 -45 -67 -25 -123 -45 -125 -45 -5 0 -3 93 3 148 l7 52 168 0 c129 0 169
-3 168 -12z m-284 -349 c12 -37 15 -66 10 -115 l-7 -65 -32 3 -31 3 -3 135 -3
134 25 -23 c14 -13 33 -46 41 -72z m-1163 -15 c15 -54 15 -55 -4 -52 -25 4
-53 75 -36 95 18 22 24 15 40 -43z m2612 -76 c-37 -72 -131 -206 -209 -297
-78 -91 -221 -222 -268 -247 -19 -10 -135 -32 -316 -59 l-44 -7 78 88 c96 111
161 208 230 349 l54 110 133 23 c73 12 176 33 228 46 134 34 134 34 114 -6z
m-2594 -8 c4 0 18 -26 31 -57 66 -168 155 -320 262 -452 l61 -74 -40 7 c-21 3
-106 21 -188 38 l-149 31 -78 70 c-44 38 -79 75 -79 81 0 20 87 235 114 280
14 25 26 54 26 66 0 16 4 20 16 16 9 -3 19 -6 24 -6z m355 -43 l189 -23 31
-119 c39 -151 87 -289 131 -378 l35 -69 -68 7 c-37 4 -112 13 -167 20 l-99 13
-53 53 c-102 101 -212 275 -284 448 -16 41 -30 76 -30 79 0 5 43 1 315 -31z
m1725 -28 c0 -27 -126 -253 -184 -329 -87 -114 -187 -213 -213 -208 -20 3 -19
8 17 168 21 91 45 203 54 249 8 46 19 88 23 92 4 4 64 14 133 22 163 19 170
19 170 6z m-1205 -20 c99 -6 181 -12 182 -13 1 0 -1 -122 -4 -269 l-6 -267
-107 0 c-173 0 -164 -5 -226 124 -51 107 -115 307 -130 403 l-7 46 59 -6 c33
-3 140 -11 239 -18z m307 -34 c6 -13 34 -36 64 -51 l52 -26 5 -57 c10 -116 42
-192 87 -206 16 -5 18 -10 10 -25 -8 -16 -6 -21 12 -31 13 -6 24 -13 26 -14 2
-2 -8 -26 -22 -54 l-26 -51 -155 0 -155 0 0 270 0 270 45 0 c38 0 47 -4 57
-25z m-869 -476 c63 -10 78 -18 161 -81 50 -38 142 -95 203 -125 62 -31 112
-58 110 -59 -1 -2 -36 4 -77 12 -110 22 -270 78 -390 135 -99 47 -279 157
-280 170 0 3 46 -4 102 -17 56 -12 133 -28 171 -35z m1157 5 c0 -8 5 -14 10
-14 6 0 10 -4 10 -10 0 -5 -13 -10 -30 -10 -34 0 -34 0 -19 34 12 26 29 26 29
0z m580 12 c0 -22 -357 -206 -402 -206 -4 0 -8 22 -8 49 0 46 3 52 37 78 31
24 59 32 192 54 174 29 181 30 181 25z m-1305 -72 c11 -2 28 -16 37 -32 27
-46 122 -138 173 -168 25 -14 44 -28 42 -31 -8 -7 -161 36 -237 67 -106 44
-310 168 -310 190 0 5 245 -16 295 -26z m745 -34 c0 -27 -5 -43 -15 -46 -8 -4
-15 -12 -15 -18 0 -15 -51 -40 -143 -72 l-69 -23 60 64 c33 35 68 77 78 94 13
23 26 31 53 34 20 2 39 4 44 5 4 1 7 -16 7 -38z m-522 23 l82 -6 0 -99 c0 -98
0 -99 -22 -93 -44 14 -118 68 -173 126 -30 33 -55 64 -55 70 0 11 52 11 168 2z
m402 1 c0 -20 -82 -113 -131 -149 -59 -43 -143 -75 -159 -59 -5 5 -6 53 -3
106 l6 97 96 4 c53 1 117 4 144 5 26 1 47 -1 47 -4z m71 -178 c-11 -13 -178
-43 -187 -33 -3 3 19 12 49 21 30 9 75 24 99 35 35 15 44 16 46 4 2 -8 -1 -20
-7 -27z"/>
</g>
</svg>
