<?xml version="1.0" standalone="no"?>
<!DOCTYPE svg PUBLIC "-//W3C//DTD SVG 20010904//EN"
 "http://www.w3.org/TR/2001/REC-SVG-20010904/DTD/svg10.dtd">
<svg version="1.0" xmlns="http://www.w3.org/2000/svg"
 width="100.000000pt" height="100.000000pt" viewBox="0 0 100.000000 100.000000"
 preserveAspectRatio="xMidYMid meet">

<g transform="translate(0.000000,100.000000) scale(0.100000,-0.100000)"
fill="#000000" stroke="none">
<path d="M91 886 c-49 -27 -50 -39 -51 -384 0 -351 2 -366 55 -390 41 -19 777
-17 814 2 49 26 51 42 51 386 0 344 -2 360 -51 386 -39 20 -782 20 -818 0z
m809 -46 c19 -19 20 -33 20 -340 0 -307 -1 -321 -20 -340 -19 -19 -33 -20
-400 -20 -367 0 -381 1 -400 20 -19 19 -20 33 -20 340 0 307 1 321 20 340 19
19 33 20 400 20 367 0 381 -1 400 -20z"/>
<path d="M220 500 c0 -132 1 -140 20 -140 18 0 20 8 22 97 l3 98 70 -97 c53
-73 76 -98 93 -98 22 0 22 1 22 140 l0 140 -25 0 c-24 0 -24 -1 -27 -96 l-3
-97 -69 97 c-99 137 -106 134 -106 -44z"/>
<path d="M587 508 c-26 -73 -47 -136 -47 -140 0 -5 9 -8 19 -8 13 0 23 11 31
35 11 34 13 35 66 35 52 0 54 -1 68 -35 10 -24 22 -35 35 -35 12 0 21 3 21 8
-1 4 -22 65 -49 137 -42 115 -50 130 -72 133 -22 3 -27 -6 -72 -130z m91 27
c5 -16 13 -38 17 -47 6 -15 1 -18 -34 -18 -23 0 -41 4 -41 8 0 5 7 30 16 56
17 50 25 50 42 1z"/>
</g>
</svg>
