<svg id="Layer_1" data-name="Layer 1" xmlns="http://www.w3.org/2000/svg" xmlns:xlink="http://www.w3.org/1999/xlink" viewBox="0 0 423.12 179.69"><defs><style>.cls-1{fill:none;}.cls-2{font-size:80px;font-family:CiscoSansTT;}.cls-2,.cls-4{fill:#343a40;}.cls-3{fill:#6c757d;}.cls-5{fill:#fff;}.cls-6{clip-path:url(#clip-path);}.cls-7{fill:#adb5bd;}</style><clipPath id="clip-path"><circle class="cls-1" cx="82.43" cy="96.88" r="40.87"/></clipPath></defs><title>Final CPDM Logo_B n W</title><text class="cls-2" transform="translate(178.65 107.81)">CPDM</text><path class="cls-3" d="M191.21,132.84a4.85,4.85,0,0,0,1.7-.28,4.27,4.27,0,0,0,1.37-.77,3.61,3.61,0,0,0,.93-1.16,3.4,3.4,0,0,0,.39-1.45h2.17a5.18,5.18,0,0,1-.56,2,5.44,5.44,0,0,1-1.36,1.71,6.6,6.6,0,0,1-2,1.19,7.39,7.39,0,0,1-2.64.45,7.61,7.61,0,0,1-2.85-.5,5.79,5.79,0,0,1-2.19-1.45,6.3,6.3,0,0,1-1.39-2.35,9.55,9.55,0,0,1-.5-3.2,9.17,9.17,0,0,1,.53-3.22,6.62,6.62,0,0,1,1.47-2.35,6.34,6.34,0,0,1,2.24-1.44,8.21,8.21,0,0,1,2.86-.49,7.73,7.73,0,0,1,2.51.4,6.94,6.94,0,0,1,2,1.07,5.27,5.27,0,0,1,1.34,1.57,4.61,4.61,0,0,1,.57,1.88h-2.16a3.49,3.49,0,0,0-1.34-2.35,4.63,4.63,0,0,0-2.9-.87,5.39,5.39,0,0,0-2,.36,4.1,4.1,0,0,0-1.55,1.08,5.11,5.11,0,0,0-1,1.81,9.34,9.34,0,0,0,0,5,5.06,5.06,0,0,0,1,1.81,4,4,0,0,0,1.51,1.11A4.78,4.78,0,0,0,191.21,132.84Z"/><path class="cls-3" d="M230.67,127.78H224v4.76h7.29v1.72h-9.43v-14.4h9.43v1.72H224v4.52h6.68Z"/><path class="cls-3" d="M267.53,119.86v14.4h-2.71l-7.29-12.06v12.06h-1.95v-14.4h2.83l7.21,12v-12Z"/><path class="cls-3" d="M303.23,121.68h-5.08v12.58H296V121.68h-5v-1.82h12.25Z"/><path class="cls-3" d="M336.07,134.26l-3.65-5.48h-3.59v5.48h-2.15v-14.4h4.9A7.25,7.25,0,0,1,336,121a4,4,0,0,1,1.54,3.35,4.1,4.1,0,0,1-.24,1.46,3.57,3.57,0,0,1-.66,1.12,4.3,4.3,0,0,1-1,.83,4.88,4.88,0,0,1-1.17.57l4.07,5.9Zm-7.24-12.74v5.6h2.85a4.26,4.26,0,0,0,2.72-.74,2.43,2.43,0,0,0,.94-2,2.6,2.6,0,0,0-.91-2.13,4.48,4.48,0,0,0-2.81-.73Z"/><path class="cls-3" d="M372.93,134.26l-1.5-3.64h-7.2l-1.51,3.64h-2.25l6.22-14.4h2.41l6.2,14.4Zm-8-5.3h5.81l-2.88-7.06Z"/><path class="cls-3" d="M400.71,119.86v12.58h7.12v1.82h-9.28v-14.4Z"/><circle class="cls-4" cx="82.43" cy="96.88" r="40.87"/><circle class="cls-5" cx="104.53" cy="82.48" r="5.23"/><circle class="cls-5" cx="56.91" cy="101.29" r="5.23"/><circle class="cls-5" cx="69" cy="115.78" r="5.23"/><circle class="cls-5" cx="75.72" cy="87.56" r="5.23"/><circle class="cls-5" cx="94.83" cy="67.25" r="5.23"/><g class="cls-6"><path class="cls-5" d="M102.47,136.29c-30-6.51-43.25-24.67-49.12-38.77a72.09,72.09,0,0,1-5.58-29.3l3.37.21a70,70,0,0,0,5.38,27.92C64.63,115.7,80.33,128,103.19,133Z"/><path class="cls-5" d="M42.85,127.37l-3.2-1.07c.39-1.17,9.78-28.71,35.67-40.43,16.68-7.56,36.27-6.7,58.23,2.57l-1.31,3.11c-21-8.88-39.72-9.76-55.5-2.62C52.2,100,42.94,127.09,42.85,127.37Z"/><path class="cls-5" d="M106.13,134.28l-3.16-1.2c19.88-52.19-25.2-78.61-25.65-78.87L79,51.28A72.22,72.22,0,0,1,100.48,72C109.08,84.58,117,105.63,106.13,134.28Z"/><path class="cls-5" d="M72.46,143a2.2,2.2,0,0,1-.68-.94l-.09,0,.09,0c-1.39-2.9-3-11.2-3-11.29a79.25,79.25,0,0,1-.57-26.07C71.07,86.47,83,63.06,123.66,55.05l.66,3.31c-22.81,4.5-38.58,14.34-46.86,29.25-13.08,23.55-3.21,51.65-2.63,53.23h0l0,.07,0,0-.43,1.87Z"/></g><path class="cls-7" d="M31.46,96.88a50.76,50.76,0,0,1,.38-6.21,9.8,9.8,0,0,0-5.38-10l-.91-.44a9.73,9.73,0,0,0-14,7.37,71.43,71.43,0,0,0,54.29,78.81A9.78,9.78,0,0,0,78,156.89v-1a9.85,9.85,0,0,0-7.63-9.53A51,51,0,0,1,31.46,96.88Z"/><path class="cls-7" d="M68.18,167.15a10.43,10.43,0,0,1-2.41-.28,71.66,71.66,0,0,1-55.29-70,73.23,73.23,0,0,1,.61-9.37,10,10,0,0,1,5.26-7.58,10.33,10.33,0,0,1,9.42-.18l.91.45a10.32,10.32,0,0,1,5.66,10.53A50.42,50.42,0,0,0,70.45,145.9a10.36,10.36,0,0,1,8,10v1a10.27,10.27,0,0,1-10.28,10.26ZM21.23,79.69a9.29,9.29,0,0,0-4.41,1.12,9,9,0,0,0-4.73,6.83A70.9,70.9,0,0,0,66,165.9a9.3,9.3,0,0,0,8-1.76,9.18,9.18,0,0,0,3.51-7.25v-1a9.36,9.36,0,0,0-7.25-9A51.32,51.32,0,0,1,31,96.88a52.5,52.5,0,0,1,.38-6.27,9.31,9.31,0,0,0-5.1-9.52l-.91-.44A9.3,9.3,0,0,0,21.23,79.69Z"/><path class="cls-7" d="M133.31,96.88a50.77,50.77,0,0,0-.37-6.21,9.8,9.8,0,0,1,5.38-10l.9-.44a9.74,9.74,0,0,1,14,7.37,71.52,71.52,0,0,1-54.3,78.81,9.78,9.78,0,0,1-12.07-9.49v-1a9.85,9.85,0,0,1,7.63-9.53A51,51,0,0,0,133.31,96.88Z"/><path class="cls-7" d="M96.59,167.15a10.27,10.27,0,0,1-10.27-10.26v-1a10.36,10.36,0,0,1,8-10,50.52,50.52,0,0,0,38.11-55.17A10.32,10.32,0,0,1,138.1,80.2l.9-.45a10.35,10.35,0,0,1,9.43.18,10,10,0,0,1,5.25,7.58A72,72,0,0,1,99,166.87,10.45,10.45,0,0,1,96.59,167.15Zm46.95-87.46a9.33,9.33,0,0,0-4.1,1l-.9.44a9.34,9.34,0,0,0-5.11,9.52,50.49,50.49,0,0,1,.38,6.27,51.31,51.31,0,0,1-39.24,50,9.36,9.36,0,0,0-7.25,9v1a9.15,9.15,0,0,0,3.51,7.25,9.3,9.3,0,0,0,8,1.76,71,71,0,0,0,53.91-78.26A9,9,0,0,0,148,80.81,9.26,9.26,0,0,0,143.54,79.69Z"/><path class="cls-7" d="M82.43,45.9a50.89,50.89,0,0,1,42.35,22.62,10.14,10.14,0,0,0,12.88,3.55l.29-.14a10.12,10.12,0,0,0,3.88-14.76,71.43,71.43,0,0,0-118.21-.86,10.11,10.11,0,0,0,3.82,14.85l.29.14a10.12,10.12,0,0,0,12.79-3.42A50.9,50.9,0,0,1,82.43,45.9Z"/><path class="cls-7" d="M133.3,73.58a10.78,10.78,0,0,1-8.93-4.78,50.45,50.45,0,0,0-83.44-.63,10.59,10.59,0,0,1-13.42,3.58l-.29-.14a10.6,10.6,0,0,1-4-15.58,71.92,71.92,0,0,1,119,.87,10.72,10.72,0,0,1,1.46,8.75,10.53,10.53,0,0,1-5.53,6.73l-.29.14A10.45,10.45,0,0,1,133.3,73.58ZM82.43,45.4A51.43,51.43,0,0,1,125.2,68.24a9.69,9.69,0,0,0,12.24,3.38l.29-.14a9.55,9.55,0,0,0,5-6.09,9.76,9.76,0,0,0-1.33-7.94A70.93,70.93,0,0,0,24,56.6a9.67,9.67,0,0,0-1.41,7.95,9.52,9.52,0,0,0,5,6.16l.29.14A9.6,9.6,0,0,0,40.11,67.6,51.51,51.51,0,0,1,82.43,45.4Z"/><circle class="cls-4" cx="82.69" cy="25.81" r="13.3"/><circle class="cls-4" cx="22.63" cy="135.24" r="13.3"/><circle class="cls-4" cx="142.09" cy="135.24" r="13.3"/></svg>