<svg id="Layer_1" data-name="Layer 1" xmlns="http://www.w3.org/2000/svg" xmlns:xlink="http://www.w3.org/1999/xlink" viewBox="0 0 423.36 180"><defs><style>.cls-1{fill:none;}.cls-2{font-size:80px;font-family:CiscoSansTT;}.cls-2,.cls-4{fill:#1e4471;}.cls-3{fill:#6c757d;}.cls-5{fill:#fff;}.cls-6{clip-path:url(#clip-path);}.cls-7{fill:#00bceb;}.cls-8{fill:#6abf4b;}.cls-9{fill:#fbab18;}</style><clipPath id="clip-path"><circle class="cls-1" cx="82.56" cy="97.03" r="40.87"/></clipPath></defs><title>Final CPDM Logo_RGB</title><text class="cls-2" transform="translate(178.77 107.96)">CPDM</text><path class="cls-3" d="M191.34,133a4.93,4.93,0,0,0,1.7-.28,4.53,4.53,0,0,0,1.36-.77,3.76,3.76,0,0,0,.94-1.16,3.6,3.6,0,0,0,.39-1.45h2.16a5.06,5.06,0,0,1-.56,2,5.56,5.56,0,0,1-1.35,1.71,7,7,0,0,1-2,1.19,7.39,7.39,0,0,1-2.64.45,7.82,7.82,0,0,1-2.85-.5,6,6,0,0,1-2.19-1.45,6.52,6.52,0,0,1-1.39-2.35,9.55,9.55,0,0,1-.5-3.2,9.13,9.13,0,0,1,.53-3.22,6.53,6.53,0,0,1,1.47-2.35,6.3,6.3,0,0,1,2.25-1.44,7.93,7.93,0,0,1,2.85-.49,7.47,7.47,0,0,1,2.51.4,6.76,6.76,0,0,1,2,1.07,5.23,5.23,0,0,1,1.33,1.57,4.78,4.78,0,0,1,.58,1.88H195.7a3.43,3.43,0,0,0-1.34-2.35,4.63,4.63,0,0,0-2.9-.87,5.3,5.3,0,0,0-2,.36,4.14,4.14,0,0,0-1.56,1.08,5,5,0,0,0-1,1.81,8.5,8.5,0,0,0-.35,2.55,8.17,8.17,0,0,0,.34,2.48,5.31,5.31,0,0,0,1,1.81,4,4,0,0,0,1.51,1.11A5,5,0,0,0,191.34,133Z"/><path class="cls-3" d="M230.79,127.94h-6.67v4.76h7.28v1.72H222V120h9.42v1.72h-7.28v4.52h6.67Z"/><path class="cls-3" d="M267.65,120v14.4h-2.71l-7.29-12.06v12.06H255.7V120h2.84l7.2,12V120Z"/><path class="cls-3" d="M303.35,121.84h-5.08v12.58h-2.14V121.84h-5V120h12.24Z"/><path class="cls-3" d="M336.19,134.42l-3.65-5.48H329v5.48h-2.14V120h4.89a7.25,7.25,0,0,1,4.44,1.17,4,4,0,0,1,1.54,3.35,4.14,4.14,0,0,1-.24,1.46,3.57,3.57,0,0,1-.66,1.12,4.48,4.48,0,0,1-1,.83,6.12,6.12,0,0,1-1.18.57l4.07,5.9ZM329,121.68v5.6h2.85a4.32,4.32,0,0,0,2.72-.74,2.4,2.4,0,0,0,.94-2,2.59,2.59,0,0,0-.9-2.13,4.45,4.45,0,0,0-2.82-.73Z"/><path class="cls-3" d="M373.05,134.42l-1.49-3.64h-7.21l-1.51,3.64H360.6l6.21-14.4h2.42l6.19,14.4Zm-8-5.3h5.81L368,122.06Z"/><path class="cls-3" d="M400.83,120V132.6H408v1.82h-9.28V120Z"/><circle class="cls-4" cx="82.56" cy="97.03" r="40.87"/><circle class="cls-5" cx="104.66" cy="82.64" r="5.23"/><circle class="cls-5" cx="57.03" cy="101.45" r="5.23"/><circle class="cls-5" cx="69.12" cy="115.93" r="5.23"/><circle class="cls-5" cx="75.84" cy="87.72" r="5.23"/><circle class="cls-5" cx="94.95" cy="67.41" r="5.23"/><g class="cls-6"><path class="cls-5" d="M102.59,136.44c-30-6.5-43.24-24.67-49.12-38.76a72.09,72.09,0,0,1-5.58-29.3l3.37.2A69.93,69.93,0,0,0,56.64,96.5c8.11,19.35,23.81,31.68,46.67,36.65Z"/><path class="cls-5" d="M43,127.52l-3.2-1.06c.39-1.17,9.78-28.71,35.67-40.44,16.69-7.56,36.28-6.69,58.23,2.58l-1.31,3.11c-21-8.88-39.71-9.77-55.5-2.63C52.33,100.18,43.06,127.25,43,127.52Z"/><path class="cls-5" d="M106.25,134.43l-3.15-1.2C123,81.05,77.9,54.63,77.44,54.37l1.67-2.93A72.22,72.22,0,0,1,100.6,72.12C109.2,84.73,117.16,105.79,106.25,134.43Z"/><path class="cls-5" d="M72.58,143.15a2.19,2.19,0,0,1-.67-.94l-.1,0,.09,0c-1.39-2.91-3-11.2-3-11.3a79.73,79.73,0,0,1-.57-26.06c2.87-18.23,14.82-41.63,55.47-49.65l.65,3.32C101.63,63,85.86,72.85,77.58,87.77,64.5,111.32,74.38,139.42,75,141h0l0,.07,0,0L74.51,143Z"/></g><path class="cls-7" d="M31.59,97a50.73,50.73,0,0,1,.37-6.2,9.8,9.8,0,0,0-5.38-10l-.91-.44a9.74,9.74,0,0,0-14,7.37A71.53,71.53,0,0,0,66,166.54a9.78,9.78,0,0,0,12.08-9.49v-1a9.86,9.86,0,0,0-7.63-9.53A51,51,0,0,1,31.59,97Z"/><path class="cls-7" d="M68.31,167.31a10.45,10.45,0,0,1-2.42-.28A72,72,0,0,1,11.22,87.66a10,10,0,0,1,5.25-7.57,10.33,10.33,0,0,1,9.42-.18l.91.44a10.34,10.34,0,0,1,5.66,10.54,50.42,50.42,0,0,0,38.11,55.17,10.35,10.35,0,0,1,8,10v1a10.15,10.15,0,0,1-3.89,8A10.26,10.26,0,0,1,68.31,167.31ZM21.36,79.84A9.34,9.34,0,0,0,16.94,81a9,9,0,0,0-4.73,6.82,71,71,0,0,0,53.91,78.27,9.3,9.3,0,0,0,7.95-1.76,9.19,9.19,0,0,0,3.51-7.25v-1a9.36,9.36,0,0,0-7.25-9A51.32,51.32,0,0,1,31.08,97a50.22,50.22,0,0,1,.39-6.26,9.33,9.33,0,0,0-5.11-9.52l-.91-.44A9.14,9.14,0,0,0,21.36,79.84Z"/><path class="cls-8" d="M133.44,97a50.72,50.72,0,0,0-.38-6.2,9.8,9.8,0,0,1,5.38-10l.91-.44a9.73,9.73,0,0,1,14,7.37A71.43,71.43,0,0,1,99,166.54a9.78,9.78,0,0,1-12.08-9.49v-1a9.86,9.86,0,0,1,7.63-9.53A51,51,0,0,0,133.44,97Z"/><path class="cls-8" d="M96.71,167.31a10.29,10.29,0,0,1-10.27-10.26v-1a10.35,10.35,0,0,1,8-10,50.42,50.42,0,0,0,38.11-55.17,10.34,10.34,0,0,1,5.66-10.54l.91-.44a10.33,10.33,0,0,1,9.42.18,10,10,0,0,1,5.26,7.57,73.35,73.35,0,0,1,.61,9.37,71.67,71.67,0,0,1-55.29,70A10.45,10.45,0,0,1,96.71,167.31Zm47-87.47a9.18,9.18,0,0,0-4.1,1l-.91.44a9.31,9.31,0,0,0-5.1,9.52,52.21,52.21,0,0,1,.38,6.26,51.32,51.32,0,0,1-39.25,50,9.36,9.36,0,0,0-7.25,9v1A9.19,9.19,0,0,0,91,164.3a9.3,9.3,0,0,0,8,1.76,70.91,70.91,0,0,0,53.91-78.27A9,9,0,0,0,148.08,81,9.33,9.33,0,0,0,143.67,79.84Z"/><path class="cls-9" d="M82.56,46.06A50.88,50.88,0,0,1,124.9,68.68a10.14,10.14,0,0,0,12.88,3.55l.29-.14A10.12,10.12,0,0,0,142,57.33a71.43,71.43,0,0,0-118.21-.86,10.11,10.11,0,0,0,3.82,14.85l.29.14A10.13,10.13,0,0,0,40.64,68,50.9,50.9,0,0,1,82.56,46.06Z"/><path class="cls-9" d="M133.43,73.73A10.79,10.79,0,0,1,124.49,69a50.46,50.46,0,0,0-83.44-.63,10.58,10.58,0,0,1-13.42,3.59l-.29-.14a10.6,10.6,0,0,1-4-15.58,71.93,71.93,0,0,1,119,.86,10.75,10.75,0,0,1,1.47,8.76,10.54,10.54,0,0,1-5.54,6.73l-.29.14A10.42,10.42,0,0,1,133.43,73.73ZM82.56,45.56A51.42,51.42,0,0,1,125.32,68.4a9.7,9.7,0,0,0,12.24,3.38l.29-.14a9.52,9.52,0,0,0,5-6.09,9.72,9.72,0,0,0-1.33-7.94,70.93,70.93,0,0,0-117.38-.85,9.65,9.65,0,0,0-1.41,7.94,9.54,9.54,0,0,0,5,6.17l.29.14a9.59,9.59,0,0,0,12.16-3.26A51.53,51.53,0,0,1,82.56,45.56Z"/><circle class="cls-4" cx="82.81" cy="25.97" r="13.3"/><circle class="cls-4" cx="22.75" cy="135.39" r="13.3"/><circle class="cls-4" cx="142.22" cy="135.39" r="13.3"/></svg>